<svg width="26" height="26" viewBox="0 0 26 26" fill="none" xmlns="http://www.w3.org/2000/svg">
<path d="M6.41996 15.4656L5.59721 18.537L2.59008 18.6006C1.69139 16.9338 1.18164 15.0266 1.18164 13C1.18164 11.0403 1.65825 9.1922 2.50306 7.56494H2.50371L5.1809 8.05576L6.35366 10.7169C6.10821 11.4325 5.97442 12.2007 5.97442 13C5.97451 13.8675 6.13166 14.6987 6.41996 15.4656Z" fill="#FBBB00"/>
<path d="M24.6116 10.792C24.7474 11.5069 24.8181 12.2452 24.8181 12.9998C24.8181 13.8459 24.7292 14.6712 24.5597 15.4673C23.9844 18.1764 22.4811 20.542 20.3987 22.216L20.398 22.2154L17.026 22.0433L16.5487 19.0641C17.9305 18.2537 19.0104 16.9855 19.5793 15.4673H13.2598V10.792H19.6715H24.6116Z" fill="#518EF8"/>
<path d="M20.3981 22.2153L20.3988 22.216C18.3735 23.8439 15.8007 24.8179 13.0001 24.8179C8.49942 24.8179 4.58645 22.3023 2.59033 18.6004L6.42021 15.4653C7.41824 18.1289 9.98773 20.0251 13.0001 20.0251C14.2949 20.0251 15.5079 19.6751 16.5488 19.064L20.3981 22.2153Z" fill="#28B446"/>
<path d="M20.5432 3.90241L16.7146 7.03681C15.6374 6.36345 14.364 5.97447 12.9997 5.97447C9.91916 5.97447 7.30162 7.95757 6.35358 10.7167L2.50358 7.56475H2.50293C4.46983 3.77255 8.43215 1.18164 12.9997 1.18164C15.8672 1.18164 18.4964 2.20308 20.5432 3.90241Z" fill="#F14336"/>
</svg>
